<svg width="35" height="36" viewBox="0 0 35 36" fill="none" xmlns="http://www.w3.org/2000/svg">
<path d="M8.37938 21.0751L8.37939 21.0751C9.11493 20.2475 9.7489 19.3464 10.2818 18.3709L10.282 18.3705C10.8656 17.3033 11.5598 16.302 12.3635 15.3672C13.0002 14.5773 13.7415 13.9195 14.5862 13.3982C15.4776 12.8482 16.4539 12.5707 17.5 12.5707C18.537 12.5707 19.5073 12.8293 20.3967 13.3458C21.2516 13.8424 21.9998 14.492 22.6406 15.288C23.4164 16.222 24.1016 17.2282 24.6959 18.3059C25.2444 19.2983 25.8877 20.2234 26.6264 21.0817C27.56 22.1487 28.5005 23.2297 29.448 24.3247L29.4482 24.325C30.5133 25.5573 31.05 27.009 31.05 28.647C31.05 30.1344 30.5867 31.4508 29.6551 32.5601L29.6551 32.5601C28.7076 33.6882 27.495 34.2812 26.06 34.2812C24.5759 34.2812 23.1051 34.151 21.648 33.8906C20.2784 33.6458 18.8959 33.5234 17.5 33.5234C16.1041 33.5234 14.7216 33.6458 13.352 33.8906C11.8949 34.151 10.4241 34.2812 8.94 34.2812C7.50492 34.2812 6.29269 33.6881 5.34619 32.5598C4.41382 31.4507 3.95 30.1343 3.95 28.647C3.95 27.0089 4.48734 25.5573 5.55336 24.325L8.37938 21.0751ZM8.37938 21.0751L8.37557 21.0795M8.37938 21.0751L8.37557 21.0795M8.37557 21.0795C7.4413 22.1472 6.50065 23.229 5.55363 24.3247L8.37557 21.0795ZM2.11625 15.9847C3.03078 16.9473 4.17383 17.4391 5.5 17.4391C6.82617 17.4391 7.96922 16.9473 8.88375 15.9847C9.79663 15.0237 10.25 13.8392 10.25 12.4786C10.25 11.118 9.79663 9.93351 8.88375 8.97258C7.96922 8.00992 6.82617 7.51809 5.5 7.51809C4.17383 7.51809 3.03078 8.00992 2.11625 8.97258C1.20337 9.93351 0.75 11.118 0.75 12.4786C0.75 13.8392 1.20337 15.0237 2.11625 15.9847ZM9.31625 9.24781C10.2308 10.2105 11.3738 10.7023 12.7 10.7023C14.0262 10.7023 15.1692 10.2105 16.0837 9.24781C16.9966 8.28688 17.45 7.10237 17.45 5.74178C17.45 4.38118 16.9966 3.19667 16.0837 2.23574C15.1692 1.27308 14.0262 0.78125 12.7 0.78125C11.3738 0.78125 10.2308 1.27308 9.31625 2.23574C8.40337 3.19667 7.95 4.38118 7.95 5.74178C7.95 7.10237 8.40337 8.28688 9.31625 9.24781ZM18.9163 9.24781C19.8308 10.2105 20.9738 10.7023 22.3 10.7023C23.6262 10.7023 24.7692 10.2105 25.6837 9.24781C26.5966 8.28688 27.05 7.10237 27.05 5.74178C27.05 4.38118 26.5966 3.19667 25.6837 2.23574C24.7692 1.27308 23.6262 0.78125 22.3 0.78125C20.9738 0.78125 19.8308 1.27308 18.9163 2.23574C18.0034 3.19667 17.55 4.38118 17.55 5.74178C17.55 7.10237 18.0034 8.28688 18.9163 9.24781ZM26.1163 15.9847C27.0308 16.9473 28.1738 17.4391 29.5 17.4391C30.8262 17.4391 31.9692 16.9473 32.8837 15.9847C33.7966 15.0237 34.25 13.8392 34.25 12.4786C34.25 11.118 33.7966 9.93351 32.8837 8.97258C31.9692 8.00992 30.8262 7.51809 29.5 7.51809C28.1738 7.51809 27.0308 8.00992 26.1163 8.97258C25.2034 9.93351 24.75 11.118 24.75 12.4786C24.75 13.8392 25.2034 15.0237 26.1163 15.9847Z" fill="#FF7777" fill-opacity="1" stroke="#333333" stroke-width="1.5"/>
</svg>
