<svg width="60" height="60" viewBox="0 0 60 60" fill="none" xmlns="http://www.w3.org/2000/svg">
<path d="M0 24C0 15.5992 0 11.3988 1.6349 8.19014C3.073 5.36771 5.36771 3.073 8.19014 1.6349C11.3988 0 15.5992 0 24 0H36C44.4008 0 48.6012 0 51.8099 1.6349C54.6323 3.073 56.927 5.36771 58.3651 8.19014C60 11.3988 60 15.5992 60 24V36C60 44.4008 60 48.6012 58.3651 51.8099C56.927 54.6323 54.6323 56.927 51.8099 58.3651C48.6012 60 44.4008 60 36 60H24C15.5992 60 11.3988 60 8.19014 58.3651C5.36771 56.927 3.073 54.6323 1.6349 51.8099C0 48.6012 0 44.4008 0 36V24Z" fill="#3579F8"/>
<path d="M31.1725 9.2392C30.805 9.08248 30.4112 9 30 9C29.5888 9 29.195 9.08248 28.8275 9.2392L12.3513 15.8295C10.4263 16.5966 8.99129 18.3865 9.00004 20.5475C9.04379 28.7298 12.6138 43.7003 27.69 50.5051C29.1513 51.165 30.8487 51.165 32.31 50.5051C47.3862 43.7003 50.9562 28.7298 51 20.5475C51.0087 18.3865 49.5737 16.5966 47.6487 15.8295L31.1725 9.2392ZM21.6 21.7353C21.6 21.2569 22.0113 20.8775 22.51 20.8775H22.5275C22.825 20.8775 23.0963 21.0094 23.2713 21.2321L26.7713 25.6284C27.0338 25.9584 27.4538 26.1563 27.8913 26.1563H32.0912C32.5287 26.1563 32.9487 25.9584 33.2112 25.6284L36.7112 21.2321C36.8862 21.0094 37.1662 20.8775 37.455 20.8775H37.4725C37.98 20.8775 38.3825 21.2651 38.3825 21.7353V31.4352C38.3825 35.8068 34.62 39.3535 29.9825 39.3535C25.345 39.3535 21.5825 35.8068 21.5825 31.4352V21.7353H21.6ZM26.5 32.7549C27.27 32.7549 27.9 32.161 27.9 31.4352C27.9 30.7093 27.27 30.1155 26.5 30.1155C25.73 30.1155 25.1 30.7093 25.1 31.4352C25.1 32.161 25.73 32.7549 26.5 32.7549ZM34.9 31.4352C34.9 30.7093 34.27 30.1155 33.5 30.1155C32.73 30.1155 32.1 30.7093 32.1 31.4352C32.1 32.161 32.73 32.7549 33.5 32.7549C34.27 32.7549 34.9 32.161 34.9 31.4352Z" fill="#F8F8F8"/>
</svg>
