<svg width="60" height="60" viewBox="0 0 60 60" fill="none" xmlns="http://www.w3.org/2000/svg">
<path d="M0 24C0 15.5992 0 11.3988 1.6349 8.19014C3.073 5.36771 5.36771 3.073 8.19014 1.6349C11.3988 0 15.5992 0 24 0H36C44.4008 0 48.6012 0 51.8099 1.6349C54.6323 3.073 56.927 5.36771 58.3651 8.19014C60 11.3988 60 15.5992 60 24V36C60 44.4008 60 48.6012 58.3651 51.8099C56.927 54.6323 54.6323 56.927 51.8099 58.3651C48.6012 60 44.4008 60 36 60H24C15.5992 60 11.3988 60 8.19014 58.3651C5.36771 56.927 3.073 54.6323 1.6349 51.8099C0 48.6012 0 44.4008 0 36V24Z" fill="#3579F8"/>
<path d="M31.1725 9.2392C30.805 9.08248 30.4112 9 30 9C29.5887 9 29.195 9.08248 28.8275 9.2392L12.3513 15.8295C10.4263 16.5966 8.99129 18.3865 9.00004 20.5475C9.04379 28.7298 12.6138 43.7003 27.69 50.5051C29.1513 51.165 30.8487 51.165 32.31 50.5051C47.3862 43.7003 50.9562 28.7298 51 20.5475C51.0087 18.3865 49.5737 16.5966 47.6487 15.8295L31.1725 9.2392ZM21.6788 32.6064C22.0988 32.7054 22.545 32.7549 23 32.7549C26.0888 32.7549 28.6 30.3877 28.6 27.476V22.1972H32.4675C33.5262 22.1972 34.4975 22.7581 34.97 23.6571L35.6 24.8366H41.2C41.97 24.8366 42.6 25.4305 42.6 26.1563V28.7958C42.6 32.4415 39.4675 35.3943 35.6 35.3943H31.4V39.5762C31.4 40.1783 30.8837 40.6732 30.2363 40.6732C30.0788 40.6732 29.9212 40.6402 29.7812 40.5825L21.145 37.0935C20.5675 36.8625 20.2 36.3264 20.2 35.7408C20.2 35.5098 20.2525 35.2871 20.3663 35.0809L21.6788 32.6064ZM21.6 22.1972H25.8V27.476C25.8 28.936 24.5488 30.1155 23 30.1155C21.4513 30.1155 20.2 28.936 20.2 27.476V23.5169C20.2 22.791 20.83 22.1972 21.6 22.1972ZM32.8 26.1563C32.8 25.4305 32.17 24.8366 31.4 24.8366C30.63 24.8366 30 25.4305 30 26.1563C30 26.8822 30.63 27.476 31.4 27.476C32.17 27.476 32.8 26.8822 32.8 26.1563Z" fill="#F8F8F8"/>
</svg>
