<svg width="70" height="70" viewBox="0 0 325 309" fill="none" xmlns="http://www.w3.org/2000/svg">
<path d="M40.9375 146.526C29.5917 146.526 20.0018 142.609 12.1677 134.775C4.3337 126.941 0.416687 117.351 0.416687 106.005C0.416687 94.6594 4.3337 85.0695 12.1677 77.2354C20.0018 69.4014 29.5917 65.4844 40.9375 65.4844C52.2833 65.4844 61.8733 69.4014 69.7073 77.2354C77.5413 85.0695 81.4583 94.6594 81.4583 106.005C81.4583 117.351 77.5413 126.941 69.7073 134.775C61.8733 142.609 52.2833 146.526 40.9375 146.526ZM113.875 81.6927C102.529 81.6927 92.9392 77.7757 85.1052 69.9417C77.2712 62.1077 73.3542 52.5177 73.3542 41.1719C73.3542 29.8261 77.2712 20.2361 85.1052 12.4021C92.9392 4.56807 102.529 0.651062 113.875 0.651062C125.221 0.651062 134.811 4.56807 142.645 12.4021C150.479 20.2361 154.396 29.8261 154.396 41.1719C154.396 52.5177 150.479 62.1077 142.645 69.9417C134.811 77.7757 125.221 81.6927 113.875 81.6927ZM211.125 81.6927C199.779 81.6927 190.189 77.7757 182.355 69.9417C174.521 62.1077 170.604 52.5177 170.604 41.1719C170.604 29.8261 174.521 20.2361 182.355 12.4021C190.189 4.56807 199.779 0.651062 211.125 0.651062C222.471 0.651062 232.061 4.56807 239.895 12.4021C247.729 20.2361 251.646 29.8261 251.646 41.1719C251.646 52.5177 247.729 62.1077 239.895 69.9417C232.061 77.7757 222.471 81.6927 211.125 81.6927ZM284.062 146.526C272.717 146.526 263.127 142.609 255.293 134.775C247.459 126.941 243.542 117.351 243.542 106.005C243.542 94.6594 247.459 85.0695 255.293 77.2354C263.127 69.4014 272.717 65.4844 284.062 65.4844C295.408 65.4844 304.998 69.4014 312.832 77.2354C320.666 85.0695 324.583 94.6594 324.583 106.005C324.583 117.351 320.666 126.941 312.832 134.775C304.998 142.609 295.408 146.526 284.062 146.526ZM75.7854 308.609C63.6292 308.609 53.4341 303.947 45.2003 294.622C36.9557 285.307 32.8334 274.302 32.8334 261.605C32.8334 247.558 37.631 235.267 47.2263 224.731C56.8109 214.196 66.3306 203.796 75.7854 193.53C83.6195 185.156 90.3729 176.036 96.0458 166.171C101.719 156.316 108.472 147.066 116.306 138.422C122.249 131.398 129.138 125.59 136.972 120.998C144.806 116.406 153.315 114.109 162.5 114.109C171.685 114.109 180.194 116.271 188.028 120.593C195.862 124.915 202.751 130.588 208.694 137.611C216.258 146.256 222.941 155.576 228.743 165.571C234.557 175.566 241.381 184.886 249.215 193.53C258.669 203.796 268.195 214.196 277.79 224.731C287.374 235.267 292.167 247.558 292.167 261.605C292.167 274.302 288.05 285.307 279.816 294.622C271.571 303.947 261.371 308.609 249.215 308.609C234.627 308.609 220.175 307.394 205.857 304.963C191.54 302.531 177.088 301.316 162.5 301.316C147.913 301.316 133.46 302.531 119.143 304.963C104.825 307.394 90.3729 308.609 75.7854 308.609Z" fill="#FFABAB" fill-opacity="1"/>
</svg>