<svg width="39" height="39" viewBox="0 0 38 38" fill="none" xmlns="http://www.w3.org/2000/svg">
<path fill-rule="evenodd" clip-rule="evenodd" d="M13.808 27.4993C13.7462 26.4507 13.5671 25.4213 13.27 24.4089C12.9142 23.1941 12.6878 21.9467 12.5907 20.67C12.4754 19.5833 12.5393 18.5124 12.7873 17.4651C13.0607 16.3108 13.6238 15.3004 14.4621 14.462C15.2876 13.6366 16.2726 13.0654 17.3965 12.7673C18.4434 12.4896 19.5225 12.4143 20.6236 12.5326C21.8781 12.6489 23.1184 12.8846 24.3432 13.2386M14.0847 20.5335C14.173 21.7155 14.3812 22.8665 14.7093 23.9866C15.0382 25.1074 15.2369 26.2489 15.3054 27.411C15.3997 28.8252 15.4993 30.2539 15.6044 31.697C15.7087 33.1409 16.277 34.3789 17.3091 35.411C18.242 36.3439 19.3384 36.8648 20.5982 36.9737C21.8581 37.0841 22.9124 36.7151 23.7609 35.8665C24.7791 34.8483 25.6986 33.7502 26.5194 32.5722C27.3401 31.3942 28.2596 30.296 29.2778 29.2778C30.296 28.2596 31.3942 27.3401 32.5722 26.5193C33.7502 25.6986 34.8483 24.7791 35.8666 23.7609C36.7151 22.9123 37.0845 21.8577 36.9748 20.5971C36.8652 19.338 36.3439 18.242 35.411 17.3091C34.3789 16.277 33.1413 15.7084 31.6982 15.6033C30.2543 15.499 28.8253 15.3996 27.4111 15.3054C26.2291 15.217 25.068 15.0086 23.9278 14.68C22.7884 14.3506 21.6371 14.1323 20.474 14.0251C19.5431 13.9239 18.6454 13.9879 17.781 14.2172C16.9166 14.4464 16.1638 14.8816 15.5227 15.5227C14.8816 16.1638 14.4564 16.9265 14.247 17.8108C14.0376 18.695 13.9835 19.6026 14.0847 20.5335ZM24.3432 13.2386C25.3826 13.5382 26.4401 13.7282 27.5171 13.8091C28.9321 13.9035 30.3618 14.0028 31.8063 14.1072C33.6121 14.2387 35.1873 14.9641 36.4717 16.2484C37.6422 17.4189 38.3275 18.8399 38.4692 20.467C38.6149 22.1415 38.1081 23.6406 36.9272 24.8215C35.8466 25.9022 34.6805 26.8786 33.4297 27.7501C32.3245 28.5201 31.2943 29.3826 30.3385 30.3385C29.3826 31.2943 28.5201 32.3245 27.7501 33.4296C26.8786 34.6805 25.9022 35.8466 24.8216 36.9272C23.6408 38.1079 22.1423 38.6145 20.4683 38.468C18.8407 38.3272 17.4192 37.6424 16.2484 36.4717C14.9638 35.187 14.2389 33.6118 14.1083 31.8051C14.0031 30.3593 13.9032 28.9279 13.8087 27.5108L13.808 27.4993M10.4799 27.4505C9.39641 28.534 8.04153 29.0734 6.50923 29.0341C4.9817 28.9949 3.64343 28.3921 2.5529 27.3016C1.46237 26.2111 0.859588 24.8728 0.82042 23.3453C0.78113 21.813 1.32051 20.4581 2.40404 19.3746C2.86385 18.9148 3.37253 18.5529 3.92289 18.2918C3.55431 18.055 3.2063 17.7727 2.8804 17.4468C1.78988 16.3563 1.18709 15.018 1.14792 13.4905C1.10863 11.9581 1.64801 10.6033 2.73154 9.51974C3.81506 8.43622 5.16994 7.89684 6.70224 7.93613C7.20929 7.94913 7.69548 8.02423 8.15868 8.15866C8.02425 7.69546 7.94915 7.20927 7.93615 6.70223C7.89686 5.16993 8.43624 3.81504 9.51976 2.73152C10.6033 1.64799 11.9582 1.10861 13.4905 1.1479C15.018 1.18707 16.3563 1.78986 17.4468 2.88038C17.7727 3.20628 18.055 3.55429 18.2918 3.92288C18.553 3.37251 18.9148 2.86383 19.3746 2.40402C20.4581 1.32049 21.813 0.781114 23.3453 0.820402C24.8728 0.85957 26.2111 1.46235 27.3016 2.55288C28.3922 3.64341 28.9949 4.98168 29.0341 6.50922C29.0734 8.04151 28.534 9.39639 27.4505 10.4799C26.367 11.5634 25.0121 12.1028 23.4798 12.0635C21.9523 12.0244 20.614 11.4216 19.5235 10.3311C19.1976 10.0052 18.9152 9.65715 18.6785 9.28856C18.4173 9.83893 18.0555 10.3476 17.5957 10.8074C16.5121 11.8909 15.1573 12.4303 13.625 12.391C13.1179 12.378 12.6317 12.3029 12.1685 12.1685C12.303 12.6317 12.3781 13.1179 12.3911 13.6249C12.4303 15.1572 11.891 16.5121 10.8074 17.5956C10.3476 18.0555 9.83895 18.4173 9.28858 18.6785C9.65716 18.9152 10.0052 19.1976 10.3311 19.5234C11.4216 20.614 12.0244 21.9522 12.0636 23.4798C12.1028 25.0121 11.5635 26.367 10.4799 27.4505ZM6.54768 27.5346C7.67012 27.5634 8.62732 27.1818 9.41928 26.3898C10.2112 25.5979 10.5928 24.6407 10.564 23.5182C10.5353 22.3958 10.1041 21.4177 9.27041 20.5841C8.43677 19.7505 7.45873 19.3193 6.33629 19.2905C5.21386 19.2617 4.25666 19.6433 3.4647 20.4352C2.67274 21.2272 2.29115 22.1844 2.31993 23.3068C2.34871 24.4293 2.77992 25.4073 3.61356 26.241C4.4472 27.0746 5.42524 27.5058 6.54768 27.5346ZM6.87518 17.6798C7.99762 17.7085 8.95482 17.3269 9.74678 16.535C10.5387 15.743 10.9203 14.7858 10.8916 13.6634C10.8628 12.541 10.4316 11.5629 9.59792 10.7293C8.76428 9.89563 7.78623 9.46442 6.6638 9.43564C5.54136 9.40686 4.58416 9.78844 3.7922 10.5804C3.00024 11.3724 2.61865 12.3296 2.64743 13.452C2.67621 14.5744 3.10742 15.5525 3.94106 16.3861C4.7747 17.2198 5.75275 17.651 6.87518 17.6798ZM13.6634 10.8915C14.7858 10.9203 15.743 10.5387 16.535 9.74676C17.327 8.9548 17.7086 7.9976 17.6798 6.87517C17.651 5.75273 17.2198 4.77468 16.3861 3.94104C15.5525 3.1074 14.5745 2.67619 13.452 2.64741C12.3296 2.61863 11.3724 3.00022 10.5804 3.79218C9.78846 4.58414 9.40687 5.54134 9.43565 6.66378C9.46444 7.78621 9.89565 8.76426 10.7293 9.5979C11.5629 10.4315 12.541 10.8628 13.6634 10.8915ZM23.5182 10.564C24.6407 10.5928 25.5979 10.2112 26.3898 9.41926C27.1818 8.6273 27.5634 7.6701 27.5346 6.54766C27.5058 5.42522 27.0746 4.44718 26.241 3.61354C25.4073 2.7799 24.4293 2.34869 23.3069 2.31991C22.1844 2.29113 21.2272 2.67272 20.4353 3.46468C19.6433 4.25664 19.2617 5.21384 19.2905 6.33627C19.3193 7.45871 19.7505 8.43675 20.5841 9.2704C21.4178 10.104 22.3958 10.5352 23.5182 10.564Z" fill="#333333" fill-opacity="0.3"/>
</svg>
